<svg xmlns="http://www.w3.org/2000/svg" width="94" height="28" fill="none"><path fill="#187DBB" d="M9.933 11.817a5.764 5.764 0 0 1-.74 3.372 3.064 3.064 0 0 1-2.614.995 3.725 3.725 0 0 1-2.002-.447 2.47 2.47 0 0 1-.994-1.377 8.59 8.59 0 0 1-.32-2.58V2.65H0v9.346c0 2.537.522 4.347 1.556 5.444a6.74 6.74 0 0 0 5.062 1.633c2.359 0 4.055-.548 5.074-1.645 1.019-1.097 1.53-2.907 1.53-5.419V2.65H9.935l-.002 9.167ZM27.082 10.363a6.251 6.251 0 0 0-1.785-.852 50.277 50.277 0 0 0-2.014-.573 11.143 11.143 0 0 1-2.589-.83 1.299 1.299 0 0 1-.738-1.185 1.413 1.413 0 0 1 .714-1.3 3.612 3.612 0 0 1 1.85-.408 3.758 3.758 0 0 1 3.454 1.913l2.5-1.948c-1.162-1.916-3.13-2.875-5.906-2.875a6.754 6.754 0 0 0-4.424 1.288 4.368 4.368 0 0 0-1.542 3.571c-.028.72.13 1.436.459 2.078.31.55.746 1.018 1.274 1.365a6.989 6.989 0 0 0 1.913.892c.739.23 1.53.46 2.359.676.62.144 1.226.344 1.81.599.307.141.574.356.778.624.18.262.27.575.255.893.029.572-.26 1.113-.753 1.406a3.987 3.987 0 0 1-2.078.459 5.384 5.384 0 0 1-1.582-.217 4 4 0 0 1-1.186-.609 5.924 5.924 0 0 1-1.058-1.185l-2.524 1.917a5.798 5.798 0 0 0 2.563 2.283 8.96 8.96 0 0 0 3.71.714 7.336 7.336 0 0 0 4.684-1.293 4.476 4.476 0 0 0 1.582-3.697 4.793 4.793 0 0 0-.472-2.27 3.917 3.917 0 0 0-1.254-1.436ZM30.69 5.634h4.948V18.72h3.277V5.634h4.948V2.65H30.69v2.984ZM57.822 10.696a5.575 5.575 0 0 0 .867-3.277 4.345 4.345 0 0 0-1.428-3.66 7.426 7.426 0 0 0-4.535-1.109h-5.843v16.07h3.277v-6.087h1.658l4.093 6.087h3.762l-4.297-6.465a3.905 3.905 0 0 0 2.446-1.56Zm-3.57-1.135c-.55.16-1.123.228-1.696.205h-2.397V5.494h2.537a3.797 3.797 0 0 1 2.053.421c.468.41.702 1.027.624 1.645.027.469-.06.937-.254 1.364a1.69 1.69 0 0 1-.866.637h-.001ZM88.207 2.65h-4.26L78.63 18.72h3.252l1.046-3.264h6.184l1.071 3.264h3.354l-5.33-16.07Zm-4.347 9.933 2.168-6.644 2.155 6.644H83.86ZM74.284 9.357a32.798 32.798 0 0 0-3.265-6.036l.536-1.212A1.136 1.136 0 0 0 70.98.62a1.132 1.132 0 0 0-1.496.578l-.365.828a1.704 1.704 0 0 0-.255-.012h-.153A2.378 2.378 0 0 0 66.5 4.538c.02.291.094.576.217.841l-5.151 11.667-.306.7.702.306 1.989.88a1.72 1.72 0 0 0 2.284-.879l2.613-5.928c.36-.82.04-1.778-.739-2.218l.582-1.303c.446.832.846 1.688 1.198 2.563a27.496 27.496 0 0 1 1.696 5.929c.065.436.255.843.548 1.173a2.367 2.367 0 0 0 4.105-2.07 32.581 32.581 0 0 0-1.954-6.842ZM70.19 1.502a.358.358 0 0 1 .327-.217.46.46 0 0 1 .14.026c.185.084.27.3.192.487l-.366.841a2.23 2.23 0 0 0-.608-.408l.315-.729Zm-2.882 8.351a.487.487 0 0 0 .244.638l.114.051a.974.974 0 0 1 .497 1.275l-2.627 5.916a.974.974 0 0 1-.88.574c-.136 0-.27-.027-.396-.077l-1.99-.88 4.948-11.207c.357.522.69 1.058 1.007 1.607l-.917 2.103Zm7.664 8.072c-.292.25-.662.39-1.046.395-.467.001-.91-.204-1.211-.56a1.604 1.604 0 0 1-.365-.804 28.112 28.112 0 0 0-1.747-6.095 28.536 28.536 0 0 0-3.022-5.558 1.608 1.608 0 0 1 1.198-2.533h.102c.564-.001 1.087.294 1.377.777a31.87 31.87 0 0 1 5.228 12.783 1.6 1.6 0 0 1-.514 1.6v-.005Z"/><path fill="#187DBB" d="M69.078 5.677a1.217 1.217 0 1 0-.165-2.429 1.217 1.217 0 0 0 .165 2.43ZM74.114 18.02a1.217 1.217 0 1 0-.165-2.429 1.217 1.217 0 0 0 .165 2.43ZM3.52 23.969a1.118 1.118 0 0 0-.447-.433 1.44 1.44 0 0 0-.65-.14 1.04 1.04 0 0 0-.932.42c-.218.375-.32.805-.293 1.238-.035.419.063.838.28 1.199.225.27.568.413.918.382.306.005.608-.065.88-.205v-.738h-.93v-.853h1.9v2.085c-.247.177-.523.31-.815.395a3.386 3.386 0 0 1-1.007.154 2.23 2.23 0 0 1-1.67-.574 2.606 2.606 0 0 1-.562-1.849c0-1.67.74-2.512 2.206-2.512.385-.007.768.067 1.123.217.305.13.561.353.73.638l-.732.576ZM9.651 27.378l-1.21-1.798h-.488v1.798H6.98V22.63h1.722c.47-.037.94.08 1.339.331.306.273.462.676.421 1.083.017.343-.072.683-.254.974-.17.247-.435.413-.73.46l1.262 1.912H9.643l.008-.012Zm-.165-3.287a.556.556 0 0 0-.179-.487 1.163 1.163 0 0 0-.599-.122h-.747v1.262h.714a1.62 1.62 0 0 0 .497-.063.442.442 0 0 0 .254-.191c.048-.13.068-.268.06-.407v.008ZM17.01 25.001a2.8 2.8 0 0 1-.523 1.85 1.88 1.88 0 0 1-1.517.608 1.813 1.813 0 0 1-1.542-.65 3.591 3.591 0 0 1 0-3.652 1.813 1.813 0 0 1 1.542-.65 1.838 1.838 0 0 1 1.556.65c.352.548.521 1.194.483 1.844Zm-.995 0a2.321 2.321 0 0 0-.244-1.223.873.873 0 0 0-.803-.382.86.86 0 0 0-.804.382c-.185.38-.269.801-.243 1.223a2.32 2.32 0 0 0 .243 1.224c.18.262.487.408.804.382a.86.86 0 0 0 .803-.382c.192-.378.276-.801.244-1.224ZM23.436 25.001a2.8 2.8 0 0 1-.522 1.85 1.88 1.88 0 0 1-1.517.608 1.813 1.813 0 0 1-1.543-.65 3.591 3.591 0 0 1 0-3.652 1.813 1.813 0 0 1 1.543-.65 1.838 1.838 0 0 1 1.556.65c.352.548.52 1.194.483 1.844Zm-.995 0a2.321 2.321 0 0 0-.243-1.223.873.873 0 0 0-.804-.382.86.86 0 0 0-.803.382c-.185.38-.27.801-.244 1.223a2.32 2.32 0 0 0 .244 1.224c.18.262.486.408.803.382a.86.86 0 0 0 .804-.382c.191-.378.275-.801.243-1.224ZM29.76 27.378V24.19l-1.136 1.976h-.56L26.94 24.19v3.188h-.93V22.63h1.109l1.237 2.244 1.249-2.244h1.083v4.748h-.93ZM35.599 27.374h-2.283v-.739h.664v-3.252h-.664v-.74H35.6v.74h-.663v3.25h.663v.741ZM40.891 27.378l-1.721-3.392v3.392h-.944V22.63h1.25l1.606 3.2v-3.2h.944v4.748H40.89ZM47.942 23.969a1.117 1.117 0 0 0-.447-.433 1.44 1.44 0 0 0-.65-.14 1.04 1.04 0 0 0-.931.42c-.218.375-.32.805-.294 1.238-.034.419.064.838.28 1.199.225.27.568.413.918.382.306.005.608-.065.88-.205v-.738h-.905v-.853h1.9v2.085a2.7 2.7 0 0 1-.815.395 3.387 3.387 0 0 1-1.007.154 2.229 2.229 0 0 1-1.67-.574 2.606 2.606 0 0 1-.562-1.849c0-1.67.74-2.512 2.206-2.512.385-.007.768.067 1.123.217.305.13.561.353.73.638l-.756.576ZM55.838 23.522v1.02h1.747v.852h-1.747v1.984h-.974V22.63h3.044v.88h-2.07v.012ZM64.2 25.001a2.8 2.8 0 0 1-.523 1.85 1.88 1.88 0 0 1-1.517.608 1.813 1.813 0 0 1-1.542-.65 3.591 3.591 0 0 1 0-3.652 1.814 1.814 0 0 1 1.542-.65 1.84 1.84 0 0 1 1.556.65A3.08 3.08 0 0 1 64.199 25Zm-.995 0a2.321 2.321 0 0 0-.244-1.223.873.873 0 0 0-.803-.382.86.86 0 0 0-.804.382c-.185.38-.269.801-.243 1.223a2.32 2.32 0 0 0 .243 1.224c.18.262.486.408.804.382a.86.86 0 0 0 .803-.382c.191-.378.276-.801.244-1.224ZM69.425 27.378l-1.21-1.798h-.488v1.798h-.974V22.63h1.722c.47-.037.94.08 1.339.331.305.273.462.676.421 1.083.017.343-.072.683-.254.974-.171.247-.435.413-.73.46l1.261 1.912h-1.095l.008-.012Zm-.153-3.287a.556.556 0 0 0-.179-.487 1.163 1.163 0 0 0-.599-.122h-.752v1.262h.713a1.62 1.62 0 0 0 .498-.063.443.443 0 0 0 .254-.191c.05-.13.072-.268.065-.407v.008ZM80.123 27.378V24.19l-1.135 1.976h-.561l-1.123-1.976v3.188h-.93V22.63h1.11l1.236 2.244 1.25-2.244h1.083v4.748h-.93ZM83.833 27.378V22.63h3.073v.852h-2.117v1.007h1.785v.852h-1.785v1.135h2.117v.88h-3.073v.022ZM92.198 27.378l-1.721-3.392v3.392h-.944V22.63h1.25l1.606 3.2v-3.2h.944v4.748h-1.135Z"/></svg>